<svg viewBox="0 0 64 64" xmlns="http://www.w3.org/2000/svg">
    <g id="Glyph">
        <g data-name="Glyph" id="Glyph-2" fill="#fff">
            <circle cx="32" cy="57" r="1" />
            <path
                d="M42.63,45.38a23,23,0,1,0-21.26,0C8.51,46.34,2,49.07,2,53.5c0,7,16.31,8.5,30,8.5s30-1.47,30-8.5C62,49.07,55.49,46.34,42.63,45.38ZM15,25A17,17,0,1,1,32,42,17,17,0,0,1,15,25ZM32,60C14.73,60,4,57.51,4,53.5c0-3.28,7.17-5.55,19.67-6.27l1.94,2C19.33,49.53,11,50.56,11,53.5c0,3.33,10.62,4.2,17,4.43h0a1,1,0,0,0,0-2c-9.57-.34-14-1.72-14.91-2.43.88-.7,5.19-2,14.41-2.41L30,53.6a2.92,2.92,0,0,0,1.95.73,3.08,3.08,0,0,0,2-.77l2.46-2.47C45.7,51.46,50,52.8,50.89,53.5c-.89.71-5.33,2.09-14.91,2.43a1,1,0,0,0,0,2h0c6.33-.23,17-1.1,17-4.43,0-2.94-8.33-4-14.61-4.32l1.94-2C52.83,48,60,50.22,60,53.5,60,57.51,49.27,60,32,60Z" />
            <path
                d="M42.45,17.25H38.87l0,0-2.65-3a2,2,0,0,0-1.52-.68H29.33a2,2,0,0,0-1.52.68l-2.68,3H21.55A2.05,2.05,0,0,0,19.5,19.3V32.36a2.05,2.05,0,0,0,2.05,2h20.9a2.05,2.05,0,0,0,2-2V19.3A2.05,2.05,0,0,0,42.45,17.25ZM32,29.7a4.66,4.66,0,1,1,4.66-4.65A4.66,4.66,0,0,1,32,29.7Z" />
        </g>
    </g>
</svg>