<?xml version="1.0" encoding="utf-8"?>
<svg viewBox="155 145 170 220" width="256" height="256" xmlns="http://www.w3.org/2000/svg">
    <path
        style="stroke: #fff; stroke-linecap: round; stroke-width: 7px;"
        d="M 153.344 213.754 L 323.299 213.754"
        transform="matrix(1, 0, 0, 1, 0, 1.4210854715202004e-14)" />
    <path
        style="stroke: #fff; stroke-width: 7px; stroke-linecap: round;"
        d="M 153.533 299.562 L 323.403 299.523"
        transform="matrix(1, 0, 0, 1, 0, 1.4210854715202004e-14)" />
    <path style="stroke: #fff; fill: none; stroke-width: 6px;"
        d="M 161.208 214.106 L 160.976 299.514 C 160.621 307.664 161.464 316.732 165.065 323.342 C 173.439 338.715 190.788 343.642 195.488 344.105 C 194.177 346.083 186.06 351.307 185.256 353.327 C 182.993 357.142 187.02 361.825 191.607 362.465 L 285.848 362.102 C 291.967 360.416 292.779 355.562 291.456 353.591 C 291.812 352.711 282.386 345.19 280.88 343.515 C 287.459 343.55 318.461 334.645 315.556 302.478 C 315.3 268.38 315.659 212.751 315.672 212.459 C 316.591 192.068 307.783 182.031 297.672 176.097 C 289 171.008 279.816 169.461 275.268 169.501 L 199.714 169.5 C 186.974 170.329 175.336 176.814 168.494 185.147 C 161.865 193.22 160.828 200.721 161.208 214.106 Z"
        transform="matrix(1, 0, 0, 1, 0, 1.4210854715202004e-14)" />
    <path
        style="stroke: #fff; stroke-linecap: round; stroke-width: 7px;"
        d="M 199.829 153.512 L 276.832 153.512"
        transform="matrix(1, 0, 0, 1, 0, 1.4210854715202004e-14)" />
    <path style="stroke: #fff; stroke-width: 8px;"
        d="M 210.287 153.393 L 210.287 169.313"
        transform="matrix(1, 0, 0, 1, 0, 1.4210854715202004e-14)" />
    <path style="stroke: #fff; stroke-width: 8px;"
        d="M 266.463 152.98 L 266.463 168.9"
        transform="matrix(1, 0, 0, 1, 0, 1.4210854715202004e-14)" />
    <path style="stroke: #fff; stroke-width: 7px;"
        d="M 192.036 343.881 L 284.097 343.881"
        transform="matrix(1, 0, 0, 1, 0, 1.4210854715202004e-14)" />
</svg>